<svg width="52" height="53" viewBox="0 0 52 53" fill="none" xmlns="http://www.w3.org/2000/svg">
<g clip-path="url(#clip0_473_28196)">
<path d="M0.890622 41.3663L20.0234 4.30824C22.6449 -0.769418 29.3551 -0.769412 31.9766 4.30825L51.1094 41.3663C53.6806 46.3465 50.3774 52.5 45.1328 52.5H6.86723C1.62262 52.5 -1.68061 46.3465 0.890622 41.3663Z" fill="#D62400"/>
<path d="M21.9375 29.75C21.9375 27.9551 23.3926 26.5 25.1875 26.5H26.8125C28.6074 26.5 30.0625 27.9551 30.0625 29.75V42.75C30.0625 44.5449 28.6074 46 26.8125 46H25.1875C23.3926 46 21.9375 44.5449 21.9375 42.75V29.75Z" fill="white"/>
<path d="M30.0625 17.5625C30.0625 19.8062 28.2437 21.625 26 21.625C23.7563 21.625 21.9375 19.8062 21.9375 17.5625C21.9375 15.3188 23.7563 13.5 26 13.5C28.2437 13.5 30.0625 15.3188 30.0625 17.5625Z" fill="white"/>
</g>
<defs>
<clipPath id="clip0_473_28196">
<rect width="52" height="52" fill="white" transform="translate(0 0.5)"/>
</clipPath>
</defs>
</svg>
