<svg width="32" height="32" viewBox="0 0 32 32" fill="none" xmlns="http://www.w3.org/2000/svg">
<path d="M30 16C30 23.732 23.732 30 16 30C8.26801 30 2 23.732 2 16C2 8.26801 8.26801 2 16 2C23.732 2 30 8.26801 30 16Z" fill="white"/>
<path d="M7.83398 12.1111L16.0007 8.22217L24.1673 12.1111L16.0007 15.9999L7.83398 12.1111Z" fill="#475161"/>
<path fill-rule="evenodd" clip-rule="evenodd" d="M15.4987 7.16887C15.8161 7.01777 16.1846 7.01777 16.5019 7.16887L24.6686 11.0578C25.0749 11.2512 25.3337 11.6611 25.3337 12.1111C25.3337 12.5611 25.0749 12.971 24.6686 13.1644L16.5019 17.0533C16.1846 17.2044 15.8161 17.2044 15.4987 17.0533L7.33207 13.1644C6.92579 12.971 6.66699 12.5611 6.66699 12.1111C6.66699 11.6611 6.92579 11.2512 7.33207 11.0578L15.4987 7.16887ZM10.5473 12.1111L16.0003 14.7078L21.4534 12.1111L16.0003 9.5144L10.5473 12.1111Z" fill="#475161"/>
<path fill-rule="evenodd" clip-rule="evenodd" d="M6.78059 19.3873C7.05761 18.8055 7.75378 18.5585 8.33552 18.8355L16.0006 22.4856L23.6657 18.8355C24.2474 18.5585 24.9436 18.8055 25.2206 19.3873C25.4976 19.969 25.2506 20.6652 24.6689 20.9422L16.5022 24.8311C16.1849 24.9822 15.8163 24.9822 15.499 24.8311L7.33234 20.9422C6.7506 20.6652 6.50357 19.969 6.78059 19.3873Z" fill="#475161"/>
<path fill-rule="evenodd" clip-rule="evenodd" d="M6.78059 15.4984C7.05761 14.9166 7.75378 14.6696 8.33552 14.9466L16.0006 18.5966L23.6657 14.9466C24.2474 14.6696 24.9436 14.9166 25.2206 15.4984C25.4976 16.0801 25.2506 16.7763 24.6689 17.0533L16.5022 20.9422C16.1849 21.0933 15.8163 21.0933 15.499 20.9422L7.33234 17.0533C6.7506 16.7763 6.50357 16.0801 6.78059 15.4984Z" fill="#475161"/>
<rect x="1.17" y="1.17" width="29.66" height="29.66" rx="14.83" stroke="#DDE3EE" stroke-width="1.66"/>
</svg>
