<svg width="14" height="14" viewBox="0 0 14 14" fill="none" xmlns="http://www.w3.org/2000/svg">
<path fill-rule="evenodd" clip-rule="evenodd" d="M3.6438 2.58957C3.6438 2.70295 3.7345 2.78231 3.83654 2.78231H7.38529C7.49867 2.78231 7.57804 2.69161 7.57804 2.58957V2.19274C7.57804 2.07936 7.48734 2 7.38529 2H3.84788C3.7345 2 3.65514 2.0907 3.65514 2.19274L3.6438 2.58957ZM10.1518 6.33106C10.2539 6.33106 10.3446 6.2517 10.3446 6.13832V5.7415C10.3446 5.63946 10.2652 5.54875 10.1518 5.54875H6.60306C6.50102 5.54875 6.41031 5.62812 6.41031 5.7415V6.13832C6.41031 6.24036 6.48968 6.33106 6.60306 6.33106H10.1518ZM11.7391 7.51021C11.8412 7.51021 11.9319 7.43084 11.9319 7.31746L11.9205 6.92064C11.9205 6.8186 11.8412 6.7279 11.7278 6.7279H7.39672C7.29468 6.7279 7.20398 6.80726 7.20398 6.92064V7.31746C7.20398 7.4195 7.28334 7.51021 7.39672 7.51021H11.7391ZM13.1109 8.50793C13.1109 8.62131 13.0202 8.70068 12.9181 8.70068H8.17892C8.06554 8.70068 7.98618 8.60997 7.98618 8.50793V8.11111C7.98618 7.99773 8.07688 7.91837 8.17892 7.91837H12.9068C13.0202 7.91837 13.0996 8.00906 13.0996 8.11111L13.1109 8.50793ZM12.9181 9.87982C13.0202 9.87982 13.1109 9.80045 13.1109 9.68708L13.0996 9.29025C13.0996 9.18821 13.0202 9.0975 12.9068 9.0975H8.17892C8.07688 9.0975 7.98618 9.17687 7.98618 9.29025V9.68708C7.98618 9.78912 8.06554 9.87982 8.17892 9.87982H12.9181ZM11.9319 10.8662C11.9319 10.9796 11.8412 11.0589 11.7391 11.0589H7.39672C7.28334 11.0589 7.20398 10.9682 7.20398 10.8662V10.4694C7.20398 10.356 7.29468 10.2766 7.39672 10.2766H11.7278C11.8412 10.2766 11.9205 10.3673 11.9205 10.4694L11.9319 10.8662ZM10.1518 12.2494C10.2538 12.2494 10.3445 12.1701 10.3445 12.0567V11.6599C10.3445 11.5578 10.2651 11.4671 10.1518 11.4671H6.603C6.50096 11.4671 6.41026 11.5465 6.41026 11.6599V12.0567C6.41026 12.1587 6.48962 12.2494 6.603 12.2494H10.1518ZM2.2605 3.96146C2.15846 3.96146 2.06775 3.88209 2.06775 3.76871H2.07909V3.37189C2.07909 3.26985 2.15846 3.17915 2.27184 3.17915H6.59156C6.6936 3.17915 6.7843 3.25851 6.7843 3.37189V3.76871C6.7843 3.87076 6.70494 3.96146 6.59156 3.96146H2.2605ZM0.888672 4.95917C0.888672 5.07255 0.979376 5.15192 1.08142 5.15192H5.8093C5.92268 5.15192 6.00205 5.06121 6.00205 4.95917V4.56235C6.00205 4.44897 5.91135 4.3696 5.8093 4.3696H1.08142C0.968038 4.3696 0.888672 4.4603 0.888672 4.56235V4.95917ZM1.08142 6.33106C0.979376 6.33106 0.888672 6.2517 0.888672 6.13832V5.7415C0.888672 5.63946 0.968038 5.54875 1.08142 5.54875H5.8093C5.91135 5.54875 6.00205 5.62812 6.00205 5.7415V6.13832C6.00205 6.24036 5.92268 6.33106 5.8093 6.33106H1.08142ZM2.06775 7.31746C2.06775 7.43084 2.15846 7.51021 2.2605 7.51021H6.59156C6.70494 7.51021 6.7843 7.4195 6.7843 7.31746V6.92064C6.7843 6.80726 6.6936 6.7279 6.59156 6.7279H2.27184C2.15846 6.7279 2.07909 6.8186 2.07909 6.92064V7.31746H2.06775ZM3.83654 8.70068C3.7345 8.70068 3.6438 8.62131 3.6438 8.50793L3.65514 8.11111C3.65514 8.00907 3.7345 7.91837 3.84788 7.91837H7.38529C7.48734 7.91837 7.57804 7.99773 7.57804 8.11111V8.50793C7.57804 8.60997 7.49867 8.70068 7.38529 8.70068H3.83654Z" fill="#EB5646"/>
</svg>
