<svg width="20" height="20" viewBox="0 0 20 20" fill="none" xmlns="http://www.w3.org/2000/svg">
<rect width="20" height="20" fill="#E5E5E5"/>
<g filter="url(#filter0_d_70:7495)">
<g clip-path="url(#clip0_70:7495)">
<rect width="716" height="50" transform="translate(-15 -15)" fill="white"/>
<ellipse cx="10" cy="10" rx="10" ry="10" fill="white"/>
<path fill-rule="evenodd" clip-rule="evenodd" d="M6.47589 5.36905C6.47589 5.48809 6.57113 5.57143 6.67828 5.57143H10.4045C10.5235 5.57143 10.6068 5.47619 10.6068 5.36905V4.95238C10.6068 4.83333 10.5116 4.75 10.4045 4.75H6.69018C6.57113 4.75 6.4878 4.84524 6.4878 4.95238L6.47589 5.36905ZM13.3094 9.29762C13.4165 9.29762 13.5118 9.21428 13.5118 9.09524V8.67857C13.5118 8.57143 13.4284 8.47619 13.3094 8.47619H9.58318C9.47604 8.47619 9.38081 8.55952 9.38081 8.67857V9.09524C9.38081 9.20238 9.46414 9.29762 9.58318 9.29762H13.3094ZM14.976 10.5357C15.0831 10.5357 15.1784 10.4524 15.1784 10.3333L15.1665 9.91667C15.1665 9.80952 15.0831 9.71429 14.9641 9.71429H10.4165C10.3093 9.71429 10.2141 9.79762 10.2141 9.91667V10.3333C10.2141 10.4405 10.2974 10.5357 10.4165 10.5357H14.976ZM16.4163 11.5833C16.4163 11.7024 16.3211 11.7857 16.214 11.7857H11.2378C11.1187 11.7857 11.0354 11.6905 11.0354 11.5833V11.1667C11.0354 11.0476 11.1306 10.9643 11.2378 10.9643H16.2021C16.3211 10.9643 16.4044 11.0595 16.4044 11.1667L16.4163 11.5833ZM16.214 13.0238C16.3211 13.0238 16.4163 12.9405 16.4163 12.8214L16.4044 12.4048C16.4044 12.2976 16.3211 12.2024 16.2021 12.2024H11.2378C11.1306 12.2024 11.0354 12.2857 11.0354 12.4048V12.8214C11.0354 12.9286 11.1187 13.0238 11.2378 13.0238H16.214ZM15.1784 14.0595C15.1784 14.1786 15.0831 14.2619 14.976 14.2619H10.4165C10.2974 14.2619 10.2141 14.1667 10.2141 14.0595V13.6428C10.2141 13.5238 10.3093 13.4405 10.4165 13.4405H14.9641C15.0831 13.4405 15.1665 13.5357 15.1665 13.6428L15.1784 14.0595ZM13.3092 15.5119C13.4164 15.5119 13.5116 15.4286 13.5116 15.3095V14.8929C13.5116 14.7857 13.4283 14.6905 13.3092 14.6905H9.58305C9.47591 14.6905 9.38067 14.7738 9.38067 14.8929V15.3095C9.38067 15.4167 9.464 15.5119 9.58305 15.5119H13.3092ZM5.02343 6.80953C4.91628 6.80953 4.82105 6.7262 4.82105 6.60715H4.83295V6.19048C4.83295 6.08334 4.91629 5.98811 5.03533 5.98811H9.57104C9.67818 5.98811 9.77342 6.07144 9.77342 6.19048V6.60715C9.77342 6.71429 9.69009 6.80953 9.57104 6.80953H5.02343ZM3.58301 7.85713C3.58301 7.97618 3.67825 8.05951 3.78539 8.05951H8.74967C8.86872 8.05951 8.95205 7.96427 8.95205 7.85713V7.44046C8.95205 7.32141 8.85681 7.23808 8.74967 7.23808H3.78539C3.66634 7.23808 3.58301 7.33332 3.58301 7.44046V7.85713ZM3.78539 9.29762C3.67825 9.29762 3.58301 9.21428 3.58301 9.09524V8.67857C3.58301 8.57143 3.66634 8.47619 3.78539 8.47619H8.74967C8.85681 8.47619 8.95205 8.55952 8.95205 8.67857V9.09524C8.95205 9.20238 8.86872 9.29762 8.74967 9.29762H3.78539ZM4.82105 10.3333C4.82105 10.4524 4.91628 10.5357 5.02343 10.5357H9.57104C9.69009 10.5357 9.77342 10.4405 9.77342 10.3333V9.91667C9.77342 9.79762 9.67818 9.71429 9.57104 9.71429H5.03533C4.91629 9.71429 4.83295 9.80953 4.83295 9.91667V10.3333H4.82105ZM6.67828 11.7857C6.57113 11.7857 6.47589 11.7024 6.47589 11.5833L6.4878 11.1667C6.4878 11.0595 6.57113 10.9643 6.69018 10.9643H10.4045C10.5116 10.9643 10.6068 11.0476 10.6068 11.1667V11.5833C10.6068 11.6905 10.5235 11.7857 10.4045 11.7857H6.67828Z" fill="#EB5646"/>
<path d="M10 18C5.58172 18 2 14.4183 2 10H-2C-2 16.6274 3.37258 22 10 22V18ZM18 10C18 14.4183 14.4183 18 10 18V22C16.6274 22 22 16.6274 22 10H18ZM10 2C14.4183 2 18 5.58172 18 10H22C22 3.37258 16.6274 -2 10 -2V2ZM10 -2C3.37258 -2 -2 3.37258 -2 10H2C2 5.58172 5.58172 2 10 2V-2Z" fill="#F7F9FC"/>
</g>
</g>
<defs>
<filter id="filter0_d_70:7495" x="-35" y="-27" width="756" height="320" filterUnits="userSpaceOnUse" color-interpolation-filters="sRGB">
<feFlood flood-opacity="0" result="BackgroundImageFix"/>
<feColorMatrix in="SourceAlpha" type="matrix" values="0 0 0 0 0 0 0 0 0 0 0 0 0 0 0 0 0 0 127 0" result="hardAlpha"/>
<feOffset dy="8"/>
<feGaussianBlur stdDeviation="10"/>
<feColorMatrix type="matrix" values="0 0 0 0 0.133333 0 0 0 0 0.133333 0 0 0 0 0.133333 0 0 0 0.1 0"/>
<feBlend mode="normal" in2="BackgroundImageFix" result="effect1_dropShadow_70:7495"/>
<feBlend mode="normal" in="SourceGraphic" in2="effect1_dropShadow_70:7495" result="shape"/>
</filter>
<clipPath id="clip0_70:7495">
<rect width="716" height="50" fill="white" transform="translate(-15 -15)"/>
</clipPath>
</defs>
</svg>
