<svg width="52" height="52" viewBox="0 0 52 52" fill="none" xmlns="http://www.w3.org/2000/svg">
<rect width="52" height="52" fill="#E5E5E5"/>
<rect x="-694" y="-300" width="1440" height="900" rx="10" fill="white"/>
<g filter="url(#filter0_d_601_22204)">
<g clip-path="url(#clip0_601_22204)">
<path d="M-223 -17C-223 -22.5228 -218.523 -27 -213 -27H265C270.523 -27 275 -22.5228 275 -17V374C275 379.523 270.523 384 265 384H-213C-218.523 384 -223 379.523 -223 374V-17Z" fill="white"/>
<g filter="url(#filter1_d_601_22204)">
<rect x="-223" y="-27" width="498" height="411" rx="10" fill="white"/>
<rect width="498" height="200" transform="translate(-223 -27)" fill="#FFEEEB"/>
<g clip-path="url(#clip1_601_22204)">
<path d="M0.890622 40.8663L20.0234 3.80824C22.6449 -1.26942 29.3551 -1.26941 31.9766 3.80825L51.1094 40.8663C53.6806 45.8465 50.3774 52 45.1328 52H6.86723C1.62262 52 -1.68061 45.8465 0.890622 40.8663Z" fill="#D62400"/>
<path d="M21.9374 29.25C21.9374 27.4551 23.3925 26 25.1874 26H26.8124C28.6074 26 30.0624 27.4551 30.0624 29.25V42.25C30.0624 44.0449 28.6074 45.5 26.8124 45.5H25.1874C23.3925 45.5 21.9374 44.0449 21.9374 42.25V29.25Z" fill="white"/>
<path d="M30.0624 17.0625C30.0624 19.3062 28.2436 21.125 25.9999 21.125C23.7563 21.125 21.9374 19.3062 21.9374 17.0625C21.9374 14.8188 23.7563 13 25.9999 13C28.2436 13 30.0624 14.8188 30.0624 17.0625Z" fill="white"/>
</g>
<rect x="-222.5" y="-26.5" width="497" height="410" rx="9.5" stroke="#F5F5F5"/>
</g>
</g>
<path d="M-213 -26.5H265V-27.5H-213V-26.5ZM274.5 -17V374H275.5V-17H274.5ZM265 383.5H-213V384.5H265V383.5ZM-222.5 374V-17H-223.5V374H-222.5ZM-213 383.5C-218.247 383.5 -222.5 379.247 -222.5 374H-223.5C-223.5 379.799 -218.799 384.5 -213 384.5V383.5ZM274.5 374C274.5 379.247 270.247 383.5 265 383.5V384.5C270.799 384.5 275.5 379.799 275.5 374H274.5ZM265 -26.5C270.247 -26.5 274.5 -22.2467 274.5 -17H275.5C275.5 -22.799 270.799 -27.5 265 -27.5V-26.5ZM-213 -27.5C-218.799 -27.5 -223.5 -22.799 -223.5 -17H-222.5C-222.5 -22.2467 -218.247 -26.5 -213 -26.5V-27.5Z" fill="#F5F5F5"/>
</g>
<defs>
<filter id="filter0_d_601_22204" x="-243.5" y="-39.5" width="539" height="452" filterUnits="userSpaceOnUse" color-interpolation-filters="sRGB">
<feFlood flood-opacity="0" result="BackgroundImageFix"/>
<feColorMatrix in="SourceAlpha" type="matrix" values="0 0 0 0 0 0 0 0 0 0 0 0 0 0 0 0 0 0 127 0" result="hardAlpha"/>
<feOffset dy="8"/>
<feGaussianBlur stdDeviation="10"/>
<feColorMatrix type="matrix" values="0 0 0 0 0.133333 0 0 0 0 0.133333 0 0 0 0 0.133333 0 0 0 0.1 0"/>
<feBlend mode="normal" in2="BackgroundImageFix" result="effect1_dropShadow_601_22204"/>
<feBlend mode="normal" in="SourceGraphic" in2="effect1_dropShadow_601_22204" result="shape"/>
</filter>
<filter id="filter1_d_601_22204" x="-243" y="-39" width="538" height="451" filterUnits="userSpaceOnUse" color-interpolation-filters="sRGB">
<feFlood flood-opacity="0" result="BackgroundImageFix"/>
<feColorMatrix in="SourceAlpha" type="matrix" values="0 0 0 0 0 0 0 0 0 0 0 0 0 0 0 0 0 0 127 0" result="hardAlpha"/>
<feOffset dy="8"/>
<feGaussianBlur stdDeviation="10"/>
<feColorMatrix type="matrix" values="0 0 0 0 0.133333 0 0 0 0 0.133333 0 0 0 0 0.133333 0 0 0 0.1 0"/>
<feBlend mode="normal" in2="BackgroundImageFix" result="effect1_dropShadow_601_22204"/>
<feBlend mode="normal" in="SourceGraphic" in2="effect1_dropShadow_601_22204" result="shape"/>
</filter>
<clipPath id="clip0_601_22204">
<path d="M-223 -17C-223 -22.5228 -218.523 -27 -213 -27H265C270.523 -27 275 -22.5228 275 -17V374C275 379.523 270.523 384 265 384H-213C-218.523 384 -223 379.523 -223 374V-17Z" fill="white"/>
</clipPath>
<clipPath id="clip1_601_22204">
<rect width="52" height="52" fill="white"/>
</clipPath>
</defs>
</svg>
