<svg width="24" height="24" viewBox="0 0 24 24" fill="none" xmlns="http://www.w3.org/2000/svg">
<path d="M22 12C22 17.5228 17.5228 22 12 22C6.47715 22 2 17.5228 2 12C2 6.47715 6.47715 2 12 2C17.5228 2 22 6.47715 22 12Z" fill="white"/>
<path fill-rule="evenodd" clip-rule="evenodd" d="M7.83366 10.1908V13.8086C6.86267 14.1518 6.16699 15.0778 6.16699 16.1663C6.16699 17.5471 7.28628 18.6663 8.66699 18.6663C10.0477 18.6663 11.167 17.5471 11.167 16.1663C11.167 15.0778 10.4713 14.1518 9.50033 13.8086V10.1908C10.1924 9.94613 10.7447 9.4054 11.0048 8.72078C11.8611 8.86052 12.6585 9.26538 13.2799 9.88678C13.3859 9.99271 13.4855 10.1037 13.5786 10.2193C13.1187 10.6727 12.8337 11.3029 12.8337 11.9997C12.8337 13.3804 13.9529 14.4997 15.3337 14.4997C16.7144 14.4997 17.8337 13.3804 17.8337 11.9997C17.8337 10.619 16.7144 9.49967 15.3337 9.49967C15.264 9.49967 15.1949 9.50253 15.1267 9.50812C14.9296 9.22401 14.7063 8.95613 14.4584 8.70827C13.5322 7.78199 12.3265 7.1994 11.0395 7.04256C10.7087 6.04923 9.77147 5.33301 8.66699 5.33301C7.28628 5.33301 6.16699 6.4523 6.16699 7.83301C6.16699 8.92152 6.86267 9.84756 7.83366 10.1908Z" fill="#647696"/>
<ellipse cx="15.3335" cy="12" rx="2.5" ry="2.5" fill="#A9B6CB"/>
<rect x="1" y="1" width="22" height="22" rx="11" stroke="#F7F9FC" stroke-width="2"/>
</svg>
