<svg width="12" height="12" viewBox="0 0 12 12" fill="none" xmlns="http://www.w3.org/2000/svg">
<path fill-rule="evenodd" clip-rule="evenodd" d="M2.25 4.37197V7.62803C1.37611 7.93691 0.75 8.77034 0.75 9.75C0.75 10.9926 1.75736 12 3 12C4.24264 12 5.25 10.9926 5.25 9.75C5.25 8.77034 4.62389 7.93691 3.75 7.62803V4.37197C4.37289 4.15181 4.86989 3.66515 5.10401 3.04899C5.87466 3.17476 6.59239 3.53913 7.15165 4.09839C7.24698 4.19373 7.33665 4.29366 7.42043 4.39767C7.00656 4.8057 6.75 5.37289 6.75 6C6.75 7.24264 7.75736 8.25 9 8.25C10.2426 8.25 11.25 7.24264 11.25 6C11.25 4.75736 10.2426 3.75 9 3.75C8.93727 3.75 8.87513 3.75257 8.8137 3.7576C8.63632 3.50191 8.43538 3.26081 8.21231 3.03773C7.37866 2.20409 6.29352 1.67975 5.13522 1.5386C4.8375 0.644599 3.99403 0 3 0C1.75736 0 0.75 1.00736 0.75 2.25C0.75 3.22966 1.37611 4.06309 2.25 4.37197Z" fill="white"/>
<circle cx="9" cy="6" r="2.25" fill="white"/>
</svg>
