<svg
className=""
name="CSLogo"
width="121"
height="20"
viewBox="0 0 121 20"
fill="none"
xmlns="http://www.w3.org/2000/svg"
>
<path
    d="M35.336 14.137a8.756 8.756 0 0 1-1.061.067c-.973 0-1.705-.134-2.168-.42-.463-.266-.774-.733-.93-1.352-.155-.618-.223-1.57-.223-2.832 0-1.238.089-2.189.244-2.811.156-.64.464-1.086.93-1.372.464-.287 1.196-.42 2.168-.42.332 0 .686.02 1.04.066.353.046.664.11.884.177v1.57a13.187 13.187 0 0 0-1.482-.11c-.598 0-.997.068-1.216.177-.223.11-.354.354-.421.708-.067.353-.089 1.04-.089 2.012s.022 1.658.089 2.011c.067.354.198.598.42.708.223.11.62.177 1.217.177.51 0 1.018-.046 1.506-.11v1.57c-.222.07-.534.138-.908.184z"
    fill="#434C64"
></path>
<path
    fill-rule="evenodd"
    clip-rule="evenodd"
    d="M37.529 12.52c.13.598.42 1.02.884 1.284.463.266 1.237.396 2.323.4 1.107 0 1.881-.134 2.344-.4.464-.265.753-.707.863-1.283.11-.577.177-1.549.177-2.921 0-1.372-.067-2.344-.177-2.92-.11-.598-.4-1.02-.863-1.284-.463-.266-1.237-.4-2.344-.4-1.086 0-1.86.134-2.323.4-.485.265-.775.686-.884 1.283-.11.598-.177 1.57-.177 2.921 0 1.35.067 2.323.177 2.92zm4.47-.841c-.046.354-.156.598-.312.686-.176.088-.487.134-.95.134-.464 0-.796-.046-.952-.134-.155-.11-.265-.332-.311-.686-.046-.354-.067-1.04-.067-2.08 0-1.018.02-1.725.067-2.078.046-.354.156-.598.311-.686.156-.089.488-.135.951-.135.464 0 .796.046.951.135.156.11.266.332.312.686.046.353.067 1.04.067 2.079 0 1.018-.021 1.725-.067 2.079z"
    fill="#434C64"
></path>
<path
    d="M50.184 14.09l-2.635-5.134h-.067v5.135h-1.945V5.105h2.058l2.479 4.714h.067V5.105h1.949v8.986h-1.906zM55.163 14.091V6.856h-2.125V5.11h6.283v1.747h-2.125v7.235h-2.033zM60.34 14.09V5.106h5.4V6.79h-3.385v1.923h2.9v1.683h-2.9v2.012h3.384v1.684h-5.4zM71.8 14.09l-2.634-5.134h-.067v5.135H67.15V5.105h2.058l2.479 4.714h.067V5.105h1.948v8.986H71.8zM76.758 14.091V6.856h-2.126V5.11h6.284v1.747h-2.125v7.235h-2.033zM81.824 13.982v-1.595c1.086.089 1.836.135 2.302.135.354 0 .64-.021.842-.046.198-.046.353-.089.42-.177a.524.524 0 0 0 .156-.286c.022-.11.022-.266.022-.488 0-.287-.022-.488-.043-.598a.507.507 0 0 0-.223-.265 1.813 1.813 0 0 0-.551-.135l-1.44-.198c-.664-.088-1.106-.353-1.35-.774-.244-.42-.354-1.018-.354-1.793 0-.753.135-1.326.375-1.725.244-.4.597-.665 1.04-.796.442-.134.997-.198 1.658-.198.82 0 1.683.088 2.542.265v1.57a18.772 18.772 0 0 0-2.079-.134c-.643 0-1.06.067-1.238.177a.397.397 0 0 0-.198.265c-.02.11-.042.265-.042.509s.021.42.043.53a.31.31 0 0 0 .176.223c.089.046.244.089.488.135l1.55.222c.353.046.643.135.862.266.223.134.42.332.576.618.177.375.266.93.266 1.638 0 .841-.11 1.46-.354 1.902-.244.42-.552.707-.951.841-.4.135-.93.199-1.595.199-1.107-.068-2.08-.156-2.9-.287zM90.389 14.091V6.856h-2.104V5.11h6.284v1.747h-2.126v7.235H90.39z"
    fill="#434C64"
></path>
<path
    fill-rule="evenodd"
    clip-rule="evenodd"
    d="M99.438 12.298l.463 1.793h2.058l-2.39-8.986h-2.833l-2.411 8.986h2.036l.421-1.793h2.656zm-1.372-5.354h.089l.862 3.674h-1.835l.884-3.674z"
    fill="#434C64"
></path>
<path
    d="M107.072 14.137a8.71 8.71 0 0 1-1.061.067c-.972 0-1.704-.134-2.167-.42-.463-.287-.775-.73-.93-1.352-.156-.618-.223-1.57-.223-2.832 0-1.238.088-2.189.244-2.811.156-.64.463-1.086.93-1.372.463-.287 1.195-.42 2.168-.42.332 0 .686.02 1.039.066.354.046.665.11.884.177v1.57a13.173 13.173 0 0 0-1.481-.11c-.598 0-.998.068-1.217.177-.223.11-.353.354-.421.708-.067.353-.088 1.04-.088 2.012s.021 1.658.088 2.011c.068.354.198.598.421.708.223.11.619.177 1.217.177.509 0 1.018-.046 1.506-.11v1.57c-.223.07-.534.138-.909.184zM113.886 14.09l-2.012-3.716h-.551v3.717h-2.012V5.105h2.012v3.561h.551l2.058-3.56h2.189l-2.609 4.292 2.634 4.693h-2.26z"
    fill="#434C64"
></path>
<path
    d="M18.451 8.073a.37.37 0 0 1-.374.375h-6.928a.37.37 0 0 1-.374-.375V7.3a.37.37 0 0 1 .374-.375h6.928a.37.37 0 0 1 .374.375v.774zM21.549 10.374a.37.37 0 0 1-.375.375h-8.476a.37.37 0 0 1-.375-.375v-.775a.37.37 0 0 1 .375-.374h8.451a.37.37 0 0 1 .375.374l.025.775zM23.85 12.698a.37.37 0 0 1-.374.375h-9.25a.37.37 0 0 1-.375-.375v-.774a.37.37 0 0 1 .375-.375h9.225a.37.37 0 0 1 .375.375l.025.774zM23.85 15a.37.37 0 0 1-.374.376h-9.25A.37.37 0 0 1 13.85 15v-.775a.37.37 0 0 1 .375-.374h9.225a.37.37 0 0 1 .375.374l.025.775zM21.549 17.302a.37.37 0 0 1-.375.374h-8.476a.37.37 0 0 1-.375-.374v-.775a.37.37 0 0 1 .375-.375h8.451a.37.37 0 0 1 .375.375l.025.775zM18.451 19.626a.37.37 0 0 1-.374.375h-6.928a.37.37 0 0 1-.374-.375v-.775a.37.37 0 0 1 .374-.374h6.928a.37.37 0 0 1 .374.374v.775zM5.375 1.15a.37.37 0 0 0 .374.374h6.928a.37.37 0 0 0 .374-.375V.375A.37.37 0 0 0 12.677 0H5.774A.37.37 0 0 0 5.4.375l-.024.774zM2.298 3.448a.37.37 0 0 0 .375.375h8.451a.37.37 0 0 0 .375-.375v-.774a.37.37 0 0 0-.375-.375h-8.43a.37.37 0 0 0-.374.375v.774h-.022zM0 5.77a.37.37 0 0 0 .375.375H9.6a.37.37 0 0 0 .375-.375v-.774A.37.37 0 0 0 9.6 4.62H.375A.37.37 0 0 0 0 4.996v.774zM0 8.073a.37.37 0 0 0 .375.375H9.6a.37.37 0 0 0 .375-.375V7.3a.37.37 0 0 0-.375-.375H.375A.37.37 0 0 0 0 7.299v.774zM2.298 10.374a.37.37 0 0 0 .375.375h8.451a.37.37 0 0 0 .375-.375v-.775a.37.37 0 0 0-.375-.374h-8.43a.37.37 0 0 0-.374.374v.775h-.022zM5.375 12.698a.37.37 0 0 0 .374.375h6.928a.37.37 0 0 0 .374-.375v-.774a.37.37 0 0 0-.374-.375H5.774a.37.37 0 0 0-.375.375l-.024.774z"
    fill="#DC5344"
></path>
<path
    d="M117.959 6.7V5.397h-.463v-.265h1.263v.265h-.467v1.305h-.333zM118.953 6.7V5.105h.488l.287 1.086.286-1.086h.488V6.7h-.286V5.463l-.311 1.237h-.311l-.312-1.237V6.7h-.329z"
    fill="#434C64"
></path>
</svg>