<svg width="15" height="16" viewBox="0 0 15 16" fill="none" xmlns="http://www.w3.org/2000/svg">
<path fill-rule="evenodd" clip-rule="evenodd" d="M5.46057 7.77297C5.46057 7.77297 5.15773 7.7225 5.10726 7.7225C4.60253 7.82344 4.60253 7.7225 5.05679 8.02533C5.35962 8.22723 5.25868 8.22723 5.56152 8.17675C5.66246 8.22723 5.76341 8.22723 5.86436 8.2777C5.86436 8.32817 5.86436 8.42912 5.86436 8.47959C5.86436 8.47959 6.11672 8.63101 6.1672 8.63101H6.57098C6.62145 8.63101 7.02524 8.37865 6.31862 8.17675C6.21767 8.17675 6.06625 8.17675 5.91483 8.22723C5.86436 8.12628 5.81388 8.02533 5.71294 7.92439C5.71294 7.92439 5.4101 7.77297 5.46057 7.77297ZM13.2334 4.03795C13.9401 5.19884 14.3943 6.56161 14.3943 8.02533C14.3943 8.42912 14.3439 8.88338 14.2934 9.28716C13.9401 8.98433 13.5868 8.73196 13.5363 8.68149C13.3849 8.53007 13.3849 8.78243 13.2839 9.08527C13.2334 9.43858 12.8297 9.13575 12.5268 9.13575C12.224 9.13575 12.0221 8.73196 12.0221 8.73196C11.4669 8.2777 11.6183 8.02534 11.6183 7.31871C11.6183 7.11682 11.7192 6.86445 11.8707 6.76351C12.224 6.35972 11.9211 6.10735 12.3249 5.80451C12.4763 5.70357 13.0315 5.55215 13.0315 5.55215C13.3344 5.14836 13.4858 5.04742 12.7287 5.19884C12.6782 5.24931 12.3754 5.19884 12.224 5.09789C12.0221 4.94647 12.4763 4.84552 12.4763 4.84552C12.6782 4.59316 12.8801 4.39127 13.082 4.18937C13.1325 4.1389 13.183 4.08843 13.2334 4.03795ZM7.02524 0.65625C7.73186 0.65625 8.38802 0.757196 9.04417 0.908616C9.19559 1.11051 9.44795 1.41335 9.49843 1.46382C9.5489 1.51429 9.70032 1.91808 9.70032 1.91808C9.39748 2.37234 9.29653 2.6247 8.64038 2.32187C8.43849 2.27139 8.08518 1.76666 8.08518 1.76666C8.08518 1.76666 7.52997 1.16098 7.42903 1.11051C7.22713 0.959089 6.92429 1.06004 6.77287 1.3124C6.87382 1.46382 6.92429 1.56477 7.02524 1.71619C7.4795 1.71619 7.4795 1.61524 7.63092 1.96855C7.4795 2.01903 7.32808 2.0695 7.12619 2.11997C6.67193 2.42281 6.82335 2.42281 6.31862 2.0695C6.31862 2.0695 6.01578 1.71619 5.9653 1.66571C5.91483 1.61524 5.71294 1.16098 5.61199 1.00956C5.61199 0.959089 5.56152 0.858143 5.61199 0.757196C6.06625 0.706723 6.52051 0.65625 7.02524 0.65625ZM7.27761 15.3944C6.77287 15.3944 6.26814 15.3439 5.71294 15.2935C5.76341 14.9402 5.76341 14.6373 5.76341 14.3345C5.76341 13.5269 5.9653 13.3755 5.30915 12.9212C5.15773 12.6689 4.95584 12.366 4.75395 12.1137C4.29969 11.6594 4.45111 11.7099 4.70347 11.1042C4.75395 10.8518 4.80442 10.5995 4.85489 10.3976C4.75395 10.1452 4.70347 9.89284 4.60253 9.64048C4.40063 9.43858 4.19874 9.18622 3.99685 8.98433C2.88644 8.68149 2.93691 8.83291 2.12934 7.97486C1.97792 7.7225 1.8265 7.47013 1.62461 7.21776C1.0694 6.56161 1.17035 6.66256 0.968458 5.85499C0.917985 5.50168 0.867512 5.14836 0.817038 4.84552C0.766565 4.64363 0.716092 4.44174 0.665619 4.29032C1.67508 2.57423 3.3407 1.3124 5.30915 0.858143C5.25868 1.11051 5.20821 1.36287 5.15773 1.66571C3.94638 2.6247 3.3407 2.87707 4.80442 3.43228C5.15773 3.98748 5.05679 4.23985 5.51104 3.88653C5.51104 3.58369 5.46057 3.28086 5.4101 2.97802C6.31862 2.37234 6.06625 2.47328 7.12619 3.02849C7.27761 3.17991 7.42903 3.33133 7.58045 3.48275C8.28707 3.78559 8.33754 3.63417 7.73186 4.08843C7.58045 4.03795 7.37855 4.03795 7.17666 3.98748C7.07571 4.08843 6.97477 4.18937 6.87382 4.29032C7.12619 4.84552 7.27761 4.79505 6.7224 4.94647C6.57098 5.04742 6.41956 5.19884 6.26814 5.29978C6.06625 5.29978 5.86436 5.29978 5.66246 5.29978C5.66246 5.29978 5.66246 5.90546 5.66246 6.00641C5.66246 6.15783 5.20821 6.56161 5.20821 6.56161C5.20821 6.56161 4.95584 6.91493 5.10726 7.11682C5.20821 7.31871 4.95584 7.47013 4.95584 7.47013C4.80442 7.31871 4.70347 7.11682 4.55205 6.9654C4.35016 6.9654 4.0978 7.01587 3.84543 7.06634C3.69401 7.16729 3.54259 7.21776 3.39117 7.31871C3.3407 7.47013 3.29022 7.67202 3.29022 7.82344C3.3407 8.07581 3.39117 8.32817 3.49212 8.58054C3.59306 8.58054 3.74448 8.58054 3.8959 8.53007C3.8959 7.77297 3.74448 7.77297 4.35016 8.2777C4.40063 8.42912 4.40063 8.58054 4.40063 8.78243C4.60253 8.83291 4.75395 8.88338 4.90537 8.93385C4.95584 9.08527 4.95584 9.28716 4.95584 9.43858C5.20821 9.64048 5.46057 9.7919 5.71294 9.94332C6.26814 10.0443 6.87382 10.0443 7.32808 10.3976C7.68139 10.5995 8.0347 10.7509 8.43849 10.9023C8.43849 11.0537 8.48896 11.2051 8.53944 11.3566C8.74133 11.407 8.99369 11.407 9.19559 11.407C9.44795 11.4575 9.70032 11.4575 9.95269 11.4575C9.95269 11.6089 9.95269 11.7604 9.95269 11.9118C9.85174 12.7698 9.80127 12.6184 9.19559 13.1736C8.99369 13.325 8.7918 13.4764 8.58991 13.6783C8.08518 14.385 8.2366 14.284 7.42903 14.5868C7.37855 14.8392 7.32808 15.1421 7.27761 15.3944Z" fill="white"/>
</svg>
