<svg width="13" height="13" viewBox="0 0 13 13" fill="none" xmlns="http://www.w3.org/2000/svg">
<g filter="url(#filter0_d_4720_68909)">
<path fill-rule="evenodd" clip-rule="evenodd" d="M4.25965 3.04908C4.25965 2.03966 4.76414 1.09702 5.60403 0.537092L6.3146 0.0633805C6.44137 -0.0211269 6.60651 -0.0211268 6.73327 0.0633806L7.44384 0.537092C8.28374 1.09702 8.78822 2.03966 8.78822 3.04908V4.70405L10.0396 5.12117C10.1937 5.17254 10.2976 5.31675 10.2976 5.47918V7.70263C10.2976 7.96021 10.0453 8.1421 9.8009 8.06064L8.31653 7.56585L8.62265 8.4842C8.70411 8.72856 8.52222 8.98091 8.26464 8.98091H4.78324C4.52565 8.98091 4.34377 8.72856 4.42522 8.4842L4.73137 7.56576L3.24672 8.06064C3.00235 8.1421 2.75 7.96021 2.75 7.70263V5.47918C2.75 5.31675 2.85394 5.17254 3.00804 5.12117L4.25965 4.70397V3.04908ZM5.39143 9.73567C5.39143 9.52725 5.22247 9.35829 5.01405 9.35829C4.80562 9.35829 4.63666 9.52725 4.63666 9.73567V10.8678C4.63666 11.0762 4.80562 11.2452 5.01405 11.2452C5.22247 11.2452 5.39143 11.0762 5.39143 10.8678L5.39143 9.73567ZM6.52381 10.1131C6.73223 10.1131 6.90119 10.2821 6.90119 10.4905V11.6226C6.90119 11.831 6.73223 12 6.52381 12C6.31539 12 6.14643 11.831 6.14643 11.6226V10.4905C6.14643 10.2821 6.31539 10.1131 6.52381 10.1131ZM8.41096 9.73567C8.41096 9.52725 8.242 9.35829 8.03358 9.35829C7.82515 9.35829 7.6562 9.52725 7.6562 9.73567V10.8678C7.6562 11.0762 7.82515 11.2452 8.03358 11.2452C8.242 11.2452 8.41096 11.0762 8.41096 10.8678V9.73567ZM6.52381 5.96199C7.14908 5.96199 7.65595 5.45511 7.65595 4.82985C7.65595 4.20459 7.14908 3.69771 6.52381 3.69771C5.89855 3.69771 5.39167 4.20459 5.39167 4.82985C5.39167 5.45511 5.89855 5.96199 6.52381 5.96199Z" fill="white"/>
</g>
<defs>
<filter id="filter0_d_4720_68909" x="0.5" y="0" width="12" height="13" filterUnits="userSpaceOnUse" color-interpolation-filters="sRGB">
<feFlood flood-opacity="0" result="BackgroundImageFix"/>
<feColorMatrix in="SourceAlpha" type="matrix" values="0 0 0 0 0 0 0 0 0 0 0 0 0 0 0 0 0 0 127 0" result="hardAlpha"/>
<feOffset dy="1"/>
<feColorMatrix type="matrix" values="0 0 0 0 0 0 0 0 0 0 0 0 0 0 0 0 0 0 0.16 0"/>
<feBlend mode="normal" in2="BackgroundImageFix" result="effect1_dropShadow_4720_68909"/>
<feBlend mode="normal" in="SourceGraphic" in2="effect1_dropShadow_4720_68909" result="shape"/>
</filter>
</defs>
</svg>
