<svg width="9" height="12" viewBox="0 0 9 12" fill="none" xmlns="http://www.w3.org/2000/svg">
<path fill-rule="evenodd" clip-rule="evenodd" d="M2.00965 3.04908C2.00965 2.03966 2.51414 1.09702 3.35403 0.537092L4.0646 0.0633805C4.19137 -0.0211269 4.35651 -0.0211268 4.48327 0.0633806L5.19384 0.537092C6.03374 1.09702 6.53822 2.03966 6.53822 3.04908V4.70405L7.78958 5.12117C7.94368 5.17254 8.04762 5.31675 8.04762 5.47918V7.70263C8.04762 7.96021 7.79527 8.1421 7.5509 8.06064L6.06653 7.56585L6.37265 8.4842C6.45411 8.72856 6.27222 8.98091 6.01464 8.98091H2.53324C2.27565 8.98091 2.09377 8.72856 2.17522 8.4842L2.48137 7.56576L0.996719 8.06064C0.752353 8.1421 0.5 7.96021 0.5 7.70263V5.47918C0.5 5.31675 0.603942 5.17254 0.758043 5.12117L2.00965 4.70397V3.04908ZM3.14143 9.73567C3.14143 9.52725 2.97247 9.35829 2.76405 9.35829C2.55562 9.35829 2.38666 9.52725 2.38666 9.73567V10.8678C2.38666 11.0762 2.55562 11.2452 2.76405 11.2452C2.97247 11.2452 3.14143 11.0762 3.14143 10.8678L3.14143 9.73567ZM4.27381 10.1131C4.48223 10.1131 4.65119 10.2821 4.65119 10.4905V11.6226C4.65119 11.831 4.48223 12 4.27381 12C4.06539 12 3.89643 11.831 3.89643 11.6226V10.4905C3.89643 10.2821 4.06539 10.1131 4.27381 10.1131ZM6.16096 9.73567C6.16096 9.52725 5.992 9.35829 5.78358 9.35829C5.57515 9.35829 5.4062 9.52725 5.4062 9.73567V10.8678C5.4062 11.0762 5.57515 11.2452 5.78358 11.2452C5.992 11.2452 6.16096 11.0762 6.16096 10.8678V9.73567ZM4.27381 5.96199C4.89908 5.96199 5.40595 5.45511 5.40595 4.82985C5.40595 4.20459 4.89908 3.69771 4.27381 3.69771C3.64855 3.69771 3.14167 4.20459 3.14167 4.82985C3.14167 5.45511 3.64855 5.96199 4.27381 5.96199Z" fill="#6C5CE7"/>
</svg>
