<svg width="9" height="12" viewBox="0 0 9 12" fill="none" xmlns="http://www.w3.org/2000/svg">
<path fill-rule="evenodd" clip-rule="evenodd" d="M2.25965 3.04908C2.25965 2.03966 2.76414 1.09702 3.60403 0.537092L4.3146 0.0633805C4.44137 -0.0211269 4.60651 -0.0211268 4.73327 0.0633806L5.44384 0.537092C6.28374 1.09702 6.78822 2.03966 6.78822 3.04908V4.70405L8.03958 5.12117C8.19368 5.17254 8.29762 5.31675 8.29762 5.47918V7.70263C8.29762 7.96021 8.04527 8.1421 7.8009 8.06064L6.31653 7.56585L6.62265 8.4842C6.70411 8.72856 6.52222 8.98091 6.26464 8.98091H2.78324C2.52565 8.98091 2.34377 8.72856 2.42522 8.4842L2.73137 7.56576L1.24672 8.06064C1.00235 8.1421 0.75 7.96021 0.75 7.70263V5.47918C0.75 5.31675 0.853942 5.17254 1.00804 5.12117L2.25965 4.70397V3.04908ZM3.39143 9.73567C3.39143 9.52725 3.22247 9.35829 3.01405 9.35829C2.80562 9.35829 2.63666 9.52725 2.63666 9.73567V10.8678C2.63666 11.0762 2.80562 11.2452 3.01405 11.2452C3.22247 11.2452 3.39143 11.0762 3.39143 10.8678L3.39143 9.73567ZM4.52381 10.1131C4.73223 10.1131 4.90119 10.2821 4.90119 10.4905V11.6226C4.90119 11.831 4.73223 12 4.52381 12C4.31539 12 4.14643 11.831 4.14643 11.6226V10.4905C4.14643 10.2821 4.31539 10.1131 4.52381 10.1131ZM6.41096 9.73567C6.41096 9.52725 6.242 9.35829 6.03358 9.35829C5.82515 9.35829 5.6562 9.52725 5.6562 9.73567V10.8678C5.6562 11.0762 5.82515 11.2452 6.03358 11.2452C6.242 11.2452 6.41096 11.0762 6.41096 10.8678V9.73567ZM4.52381 5.96199C5.14908 5.96199 5.65595 5.45511 5.65595 4.82985C5.65595 4.20459 5.14908 3.69771 4.52381 3.69771C3.89855 3.69771 3.39167 4.20459 3.39167 4.82985C3.39167 5.45511 3.89855 5.96199 4.52381 5.96199Z" fill="white"/>
</svg>
