<svg width="24" height="21" viewBox="0 0 24 21" fill="none" xmlns="http://www.w3.org/2000/svg">
<path fill-rule="evenodd" clip-rule="evenodd" d="M5.45584 1.39966C5.45584 1.62074 5.63271 1.77551 5.83169 1.77551H12.7517C12.9728 1.77551 13.1276 1.59863 13.1276 1.39966V0.625846C13.1276 0.404758 12.9507 0.25 12.7517 0.25H5.8538C5.63271 0.25 5.47795 0.426867 5.47795 0.625846L5.45584 1.39966ZM18.1464 8.69557C18.3454 8.69557 18.5223 8.54082 18.5223 8.31973V7.54592C18.5223 7.34694 18.3675 7.17007 18.1464 7.17007H11.2264C11.0274 7.17007 10.8505 7.32483 10.8505 7.54592V8.31973C10.8505 8.51871 11.0053 8.69557 11.2264 8.69557H18.1464ZM21.2417 10.9949C21.4407 10.9949 21.6176 10.8401 21.6176 10.619L21.5955 9.84524C21.5955 9.64626 21.4407 9.4694 21.2196 9.4694H12.774C12.5751 9.4694 12.3982 9.62415 12.3982 9.84524V10.619C12.3982 10.818 12.5529 10.9949 12.774 10.9949H21.2417ZM23.9167 12.9405C23.9167 13.1616 23.7398 13.3163 23.5408 13.3163H14.2993C14.0782 13.3163 13.9235 13.1394 13.9235 12.9405V12.1667C13.9235 11.9456 14.1003 11.7908 14.2993 11.7908H23.5187C23.7398 11.7908 23.8946 11.9677 23.8946 12.1667L23.9167 12.9405ZM23.5408 15.6156C23.7398 15.6156 23.9167 15.4609 23.9167 15.2398L23.8946 14.466C23.8946 14.267 23.7398 14.0901 23.5187 14.0901H14.2993C14.1003 14.0901 13.9235 14.2449 13.9235 14.466V15.2398C13.9235 15.4388 14.0782 15.6156 14.2993 15.6156H23.5408ZM21.6176 17.5391C21.6176 17.7602 21.4407 17.9149 21.2417 17.9149H12.774C12.5529 17.9149 12.3982 17.7381 12.3982 17.5391V16.7653C12.3982 16.5442 12.5751 16.3894 12.774 16.3894H21.2196C21.4407 16.3894 21.5955 16.5663 21.5955 16.7653L21.6176 17.5391ZM18.1463 20.2364C18.3453 20.2364 18.5222 20.0817 18.5222 19.8606V19.0868C18.5222 18.8878 18.3674 18.7109 18.1463 18.7109H11.2263C11.0273 18.7109 10.8504 18.8657 10.8504 19.0868V19.8606C10.8504 20.0596 11.0052 20.2364 11.2263 20.2364H18.1463ZM2.7584 4.07485C2.55942 4.07485 2.38255 3.92008 2.38255 3.69899H2.40466V2.92518C2.40466 2.7262 2.55942 2.54934 2.78051 2.54934H11.204C11.4029 2.54934 11.5798 2.7041 11.5798 2.92518V3.69899C11.5798 3.89797 11.4251 4.07485 11.204 4.07485H2.7584ZM0.083334 6.02038C0.083334 6.24147 0.260207 6.39623 0.459187 6.39623H9.67857C9.89965 6.39623 10.0544 6.21936 10.0544 6.02038V5.24657C10.0544 5.02548 9.87755 4.87073 9.67857 4.87073H0.459187C0.238099 4.87073 0.083334 5.04759 0.083334 5.24657V6.02038ZM0.459187 8.69557C0.260207 8.69557 0.083334 8.54082 0.083334 8.31973V7.54592C0.083334 7.34694 0.238099 7.17007 0.459187 7.17007H9.67857C9.87755 7.17007 10.0544 7.32483 10.0544 7.54592V8.31973C10.0544 8.51871 9.89965 8.69557 9.67857 8.69557H0.459187ZM2.38255 10.6191C2.38255 10.8401 2.55942 10.9949 2.7584 10.9949H11.204C11.4251 10.9949 11.5798 10.818 11.5798 10.6191V9.84524C11.5798 9.62416 11.4029 9.46941 11.204 9.46941H2.78051C2.55942 9.46941 2.40466 9.64627 2.40466 9.84524V10.6191H2.38255ZM5.83169 13.3163C5.63271 13.3163 5.45584 13.1616 5.45584 12.9405L5.47795 12.1667C5.47795 11.9677 5.63271 11.7908 5.8538 11.7908H12.7517C12.9507 11.7908 13.1276 11.9456 13.1276 12.1667V12.9405C13.1276 13.1394 12.9728 13.3163 12.7517 13.3163H5.83169Z" fill="#EB5646"/>
</svg>
