<svg width="28" height="28" viewBox="0 0 28 28" fill="none" xmlns="http://www.w3.org/2000/svg">
<rect width="28" height="28" fill="#E5E5E5"/>
<g clip-path="url(#clip0_622_26840)">
<rect x="-333" y="-142" width="1440" height="900" rx="10" fill="#F7F9FC"/>
<ellipse cx="14" cy="14" rx="14" ry="14" fill="white"/>
<path d="M8.47539 21.9727L10.6006 20.4413C10.815 20.9047 11.0592 21.3544 11.3316 21.7878C11.3718 21.8523 11.4283 21.9058 11.4958 21.9429C11.5632 21.9801 11.6393 21.9997 11.7168 22L16.2887 21.9987C16.3661 21.9982 16.4422 21.9784 16.5096 21.9411C16.5769 21.9038 16.6333 21.8502 16.6734 21.7856C16.9445 21.3512 17.1871 20.9006 17.4 20.4364L19.5261 21.9552C19.5782 21.9762 19.6348 21.9844 19.691 21.979C19.7471 21.9736 19.801 21.9548 19.8479 21.9242C19.8947 21.8936 19.9332 21.8522 19.9597 21.8036C19.9862 21.755 20.0001 21.7009 20 21.6458L19.9981 20.0214C19.9974 19.7077 19.9291 19.3977 19.7977 19.1114C19.6663 18.8251 19.7977 19.1114 19.3336 18.3125L18.4036 16.9658C18.8187 13.9756 17.5024 10.2162 14.2914 6.15087C14.2558 6.10401 14.2094 6.06595 14.156 6.03975C14.1026 6.01355 14.0437 5.99993 13.9839 6C13.9241 6.00007 13.8652 6.01381 13.8119 6.04014C13.7585 6.06646 13.7123 6.10462 13.6768 6.15155C10.473 10.2218 9.15975 13.977 9.57958 16.9753L8.66947 18.3333C8.18529 19.1296 8.32938 18.8434 8.19869 19.1296C8.068 19.4158 8.00031 19.7256 8 20.0389L8.00308 21.6667C8.00366 21.7212 8.01792 21.7748 8.0446 21.8227C8.07129 21.8707 8.10959 21.9115 8.15617 21.9417C8.20275 21.9719 8.25619 21.9905 8.31183 21.9959C8.36747 22.0013 8.42362 21.9933 8.47539 21.9727ZM12.5654 12.6063C12.566 12.3324 12.6497 12.0647 12.806 11.8371C12.9623 11.6095 13.1842 11.4322 13.4437 11.3275C13.7032 11.2227 13.9886 11.1953 14.2641 11.2487C14.5395 11.302 14.7926 11.4337 14.9914 11.6272C15.1902 11.8207 15.3258 12.0673 15.3811 12.3359C15.4364 12.6045 15.409 12.883 15.3022 13.1364C15.1955 13.3898 15.0142 13.6066 14.7813 13.7596C14.5483 13.9126 14.2741 13.9949 13.9933 13.9961C13.8059 13.9969 13.6201 13.9615 13.4467 13.892C13.2733 13.8224 13.1157 13.7202 12.983 13.591C12.8503 13.4618 12.7451 13.3083 12.6734 13.1393C12.6017 12.9703 12.565 12.7892 12.5654 12.6063Z" fill="#647696"/>
<path d="M14 26C7.37258 26 2 20.6274 2 14H-2C-2 22.8366 5.16344 30 14 30V26ZM26 14C26 20.6274 20.6274 26 14 26V30C22.8366 30 30 22.8366 30 14H26ZM14 2C20.6274 2 26 7.37258 26 14H30C30 5.16344 22.8366 -2 14 -2V2ZM14 -2C5.16344 -2 -2 5.16344 -2 14H2C2 7.37258 7.37258 2 14 2V-2Z" fill="#F5F5F5"/>
</g>
<defs>
<clipPath id="clip0_622_26840">
<rect x="-333" y="-142" width="1440" height="900" rx="10" fill="white"/>
</clipPath>
</defs>
</svg>
