<svg width="36" height="36" viewBox="0 0 36 36" fill="none" xmlns="http://www.w3.org/2000/svg">
<rect width="36" height="36" fill="#E5E5E5"/>
<g clip-path="url(#clip0_70_7495)">
<rect x="-42" y="-314" width="1440" height="900" rx="10" fill="#F7F9FC"/>
<g clip-path="url(#clip1_70_7495)">
<rect width="344" height="844" transform="translate(-42 -258)" fill="white"/>
<path d="M-22 -192C-22 -197.523 -17.5228 -202 -12 -202H272C277.523 -202 282 -197.523 282 -192V172C282 177.523 277.523 182 272 182H-12C-17.5228 182 -22 177.523 -22 172V-192Z" fill="white"/>
<ellipse cx="18" cy="18" rx="18" ry="18" fill="white"/>
<path d="M8 27.0957L18.5 9L29 27.0957H8Z" fill="black"/>
<path d="M18 34C9.16344 34 2 26.8366 2 18H-2C-2 29.0457 6.95431 38 18 38V34ZM34 18C34 26.8366 26.8366 34 18 34V38C29.0457 38 38 29.0457 38 18H34ZM18 2C26.8366 2 34 9.16345 34 18H38C38 6.95431 29.0457 -2 18 -2V2ZM18 -2C6.95431 -2 -2 6.95431 -2 18H2C2 9.16345 9.16344 2 18 2V-2Z" fill="#F7F9FC"/>
<path d="M-12 -201H272V-203H-12V-201ZM281 -192V172H283V-192H281ZM272 181H-12V183H272V181ZM-21 172V-192H-23V172H-21ZM-12 181C-16.9706 181 -21 176.971 -21 172H-23C-23 178.075 -18.0751 183 -12 183V181ZM281 172C281 176.971 276.971 181 272 181V183C278.075 183 283 178.075 283 172H281ZM272 -201C276.971 -201 281 -196.971 281 -192H283C283 -198.075 278.075 -203 272 -203V-201ZM-12 -203C-18.0751 -203 -23 -198.075 -23 -192H-21C-21 -196.971 -16.9706 -201 -12 -201V-203Z" fill="#F5F5F5"/>
</g>
</g>
<defs>
<clipPath id="clip0_70_7495">
<rect x="-42" y="-314" width="1440" height="900" rx="10" fill="white"/>
</clipPath>
<clipPath id="clip1_70_7495">
<rect width="344" height="844" fill="white" transform="translate(-42 -258)"/>
</clipPath>
</defs>
</svg>
