<svg width="20" height="20" viewBox="0 0 20 20" fill="none" xmlns="http://www.w3.org/2000/svg">
<rect width="20" height="20" fill="#E5E5E5"/>
<g filter="url(#filter0_d_70:7495)">
<g clip-path="url(#clip0_70:7495)">
<rect width="716" height="50" transform="translate(-15 -15)" fill="white"/>
<ellipse cx="10" cy="10" rx="10" ry="10" fill="white"/>
<path d="M5 14.4787L10.5 5L16 14.4787H5Z" fill="black"/>
<path d="M10 18C5.58172 18 2 14.4183 2 10H-2C-2 16.6274 3.37258 22 10 22V18ZM18 10C18 14.4183 14.4183 18 10 18V22C16.6274 22 22 16.6274 22 10H18ZM10 2C14.4183 2 18 5.58172 18 10H22C22 3.37258 16.6274 -2 10 -2V2ZM10 -2C3.37258 -2 -2 3.37258 -2 10H2C2 5.58172 5.58172 2 10 2V-2Z" fill="#F7F9FC"/>
</g>
</g>
<defs>
<filter id="filter0_d_70:7495" x="-35" y="-27" width="756" height="500" filterUnits="userSpaceOnUse" color-interpolation-filters="sRGB">
<feFlood flood-opacity="0" result="BackgroundImageFix"/>
<feColorMatrix in="SourceAlpha" type="matrix" values="0 0 0 0 0 0 0 0 0 0 0 0 0 0 0 0 0 0 127 0" result="hardAlpha"/>
<feOffset dy="8"/>
<feGaussianBlur stdDeviation="10"/>
<feColorMatrix type="matrix" values="0 0 0 0 0.133333 0 0 0 0 0.133333 0 0 0 0 0.133333 0 0 0 0.1 0"/>
<feBlend mode="normal" in2="BackgroundImageFix" result="effect1_dropShadow_70:7495"/>
<feBlend mode="normal" in="SourceGraphic" in2="effect1_dropShadow_70:7495" result="shape"/>
</filter>
<clipPath id="clip0_70:7495">
<rect width="716" height="50" fill="white" transform="translate(-15 -15)"/>
</clipPath>
</defs>
</svg>
